<?xml version="1.0" standalone="no"?>
<!DOCTYPE svg PUBLIC "-//W3C//DTD SVG 20010904//EN"
 "http://www.w3.org/TR/2001/REC-SVG-20010904/DTD/svg10.dtd">
<svg version="1.0" xmlns="http://www.w3.org/2000/svg"
 width="512.000000pt" height="512.000000pt" viewBox="0 0 512.000000 512.000000"
 preserveAspectRatio="xMidYMid meet">
<metadata>
Created by potrace 1.14, written by Peter Selinger 2001-2017
</metadata>
<g transform="translate(0.000000,512.000000) scale(0.100000,-0.100000)"
fill="#000000" stroke="none">
<path d="M2405 5110 c-117 -7 -333 -38 -410 -58 l-30 -8 -3 -217 -2 -216 -38
-12 c-320 -102 -598 -269 -846 -509 -343 -331 -565 -767 -630 -1238 -21 -148
-21 -436 0 -584 111 -801 681 -1485 1446 -1737 l68 -23 2 -216 3 -216 30 -8
c167 -44 482 -69 719 -57 847 47 1622 523 2056 1265 231 395 344 821 343 1294
-1 229 -20 393 -72 605 -159 648 -580 1220 -1157 1570 -335 205 -748 338
-1109 360 -203 11 -243 12 -370 5z m805 -522 c52 -17 100 -33 105 -37 6 -4 28
-13 50 -20 76 -25 260 -123 370 -196 493 -328 818 -823 927 -1415 18 -97 22
-153 22 -360 0 -275 -13 -371 -78 -596 -173 -599 -624 -1111 -1198 -1357 -80
-35 -261 -97 -320 -111 l-28 -6 0 514 0 515 38 10 c82 22 208 41 334 51 122
10 196 9 351 -6 l57 -6 0 991 0 991 -24 0 c-13 0 -31 3 -40 6 -15 6 -16 -82
-16 -950 l0 -956 -42 7 c-82 15 -436 8 -543 -11 -209 -36 -417 -99 -547 -168
-17 -8 -18 42 -18 984 l0 994 85 33 c62 24 230 81 240 81 1 0 -1 -154 -3 -341
-3 -257 -2 -341 7 -338 7 3 36 24 66 49 l55 45 0 823 0 822 28 -6 c15 -4 70
-20 122 -36z m-1290 -964 c179 -26 357 -75 558 -155 l32 -13 0 -989 c0 -938
-1 -989 -17 -982 -193 79 -376 133 -552 162 -115 18 -422 24 -523 10 l-58 -8
0 989 0 990 63 6 c34 3 80 8 102 10 69 7 285 -4 395 -20z"/>
<path d="M1591 3263 c-39 -4 -42 -6 -37 -26 3 -12 6 -34 6 -48 l0 -27 148 5
c201 7 379 -25 564 -103 32 -13 59 -24 62 -24 2 0 14 16 27 36 21 35 22 37 4
50 -26 19 -177 73 -280 99 -154 39 -327 52 -494 38z"/>
<path d="M1600 2862 c-27 -4 -45 -12 -44 -19 1 -7 2 -28 3 -47 l1 -34 133 5
c196 8 367 -21 548 -93 48 -19 89 -34 92 -34 6 0 47 64 47 74 0 21 -249 105
-390 131 -94 17 -320 27 -390 17z"/>
<path d="M1605 2461 c-31 -4 -50 -11 -49 -18 1 -7 2 -28 3 -47 l1 -35 128 6
c193 9 386 -24 562 -96 41 -17 78 -31 82 -31 13 0 50 72 42 80 -5 5 -51 25
-102 45 -214 83 -470 119 -667 96z"/>
<path d="M1615 2061 c-39 -4 -60 -10 -59 -18 1 -7 2 -29 3 -48 l1 -34 128 6
c197 9 418 -32 597 -111 l51 -23 23 39 c13 22 19 44 14 48 -14 13 -159 68
-237 90 -160 45 -381 67 -521 51z"/>
</g>
</svg>
